<?xml version="1.0" encoding="UTF-8" standalone="no"?>
<svg
   xmlns:dc="http://purl.org/dc/elements/1.1/"
   xmlns:cc="http://creativecommons.org/ns#"
   xmlns:rdf="http://www.w3.org/1999/02/22-rdf-syntax-ns#"
   xmlns:svg="http://www.w3.org/2000/svg"
   xmlns="http://www.w3.org/2000/svg"
   xmlns:sodipodi="http://sodipodi.sourceforge.net/DTD/sodipodi-0.dtd"
   xmlns:inkscape="http://www.inkscape.org/namespaces/inkscape"
   width="508.3222mm"
   height="127.48251mm"
   viewBox="0 0 508.3222 127.48251"
   version="1.1"
   id="svg1687"
   inkscape:version="1.0.2 (1.0.2+r75+1)"
   sodipodi:docname="splash.svg">
  <defs
     id="defs1681" />
  <sodipodi:namedview
     id="base"
     pagecolor="#ffffff"
     bordercolor="#666666"
     borderopacity="1.0"
     inkscape:pageopacity="0.0"
     inkscape:pageshadow="2"
     inkscape:zoom="0.98994949"
     inkscape:cx="404.65314"
     inkscape:cy="233.94837"
     inkscape:document-units="mm"
     inkscape:current-layer="layer1"
     inkscape:document-rotation="0"
     showgrid="false"
     inkscape:window-width="1514"
     inkscape:window-height="1016"
     inkscape:window-x="91"
     inkscape:window-y="27"
     inkscape:window-maximized="0" />
  <metadata
     id="metadata1684">
    <rdf:RDF>
      <cc:Work
         rdf:about="">
        <dc:format>image/svg+xml</dc:format>
        <dc:type
           rdf:resource="http://purl.org/dc/dcmitype/StillImage" />
        <dc:title />
      </cc:Work>
    </rdf:RDF>
  </metadata>
  <g
     inkscape:label="Layer 1"
     inkscape:groupmode="layer"
     id="layer1"
     transform="translate(118.84563,-85.181366)">
    <rect
       x="262.05658"
       y="85.181366"
       width="127.42"
       height="127.42"
       fill="#fd7e14"
       stop-color="#000000"
       id="rect22"
       style="fill-rule:evenodd" />
    <rect
       x="134.6366"
       y="85.181366"
       width="127.42"
       height="127.42"
       fill="#0b5cd5"
       stop-color="#000000"
       id="rect24"
       style="fill-rule:evenodd" />
    <rect
       x="7.2165875"
       y="85.181366"
       width="127.42"
       height="127.42"
       fill="#ffcb2f"
       stop-color="#000000"
       id="rect26"
       style="fill-rule:evenodd" />
    <rect
       x="-118.84563"
       y="148.93988"
       width="125.68"
       height="63.312"
       fill="#f2b6bc"
       stop-color="#000000"
       id="rect38"
       style="fill-rule:evenodd" />
    <rect
       x="-118.84563"
       y="85.215622"
       width="125.68"
       height="63.724716"
       fill="#28a745"
       stop-color="#000000"
       id="rect40"
       style="fill-rule:evenodd;stroke-width:1.00325" />
    <path
       d="m 6.82659,85.285754 a 63.329,63.329 0 0 0 -0.30346,-6.88e-4 63.329,63.329 0 0 0 -63.328,63.329004 63.329,63.329 0 0 0 7.05e-4,0.32615 H 6.82684 Z"
       fill="#fd7e14"
       stop-color="#000000"
       id="path44"
       style="fill-rule:evenodd" />
    <path
       d="m 6.82659,99.032874 a 49.652,49.652 0 0 0 -0.23792,-5.34e-4 49.652,49.652 0 0 0 -49.652,49.652 49.652,49.652 0 0 0 5.52e-4,0.25571 H 6.82622 Z"
       fill="#0b5cd5"
       stop-color="#000000"
       id="path48"
       style="fill-rule:evenodd" />
    <path
       d="m 6.82659,114.49787 a 34.266,34.266 0 0 0 -0.16419,-3.7e-4 34.266,34.266 0 0 0 -34.265,34.266 34.266,34.266 0 0 0 3.86e-4,0.17647 H 6.82679 Z"
       fill="#ffdf7e"
       stop-color="#000000"
       id="path50"
       style="fill-rule:evenodd" />
    <path
       d="m 262.05659,148.94887 h -127.84 a 63.921,63.921 0 0 0 63.92,63.591 63.921,63.921 0 0 0 63.919,-63.591 z"
       fill="#f2b6bc"
       stop-color="#000000"
       id="path52"
       style="fill-rule:evenodd" />
    <path
       d="m -118.84563,212.25087 34.785,-38.623 22.587,24.943 33.903,-41.826 35.03,55.919 z"
       fill="#0b5cd5"
       stop-color="#000000"
       id="path54"
       style="fill-rule:evenodd" />
    <path
       d="m 198.97659,85.236354 a 15.338,15.338 0 0 0 -15.337,15.257996 15.338,15.338 0 0 0 15.337,15.258 15.338,15.338 0 0 0 15.337,-15.258 15.338,15.338 0 0 0 -15.337,-15.257996 z"
       fill="#ffcb2f"
       stop-color="#000000"
       id="path56"
       style="fill-rule:evenodd" />
    <path
       d="m -98.40141,154.10287 a 11.046,11.046 0 0 0 -11.046,11.046 11.046,11.046 0 0 0 11.046,11.046 11.046,11.046 0 0 0 3.6495,-0.62021 11.046,11.046 0 0 1 -0.09733,-0.0346 11.046,11.046 0 0 1 -0.10874,-0.0399 11.046,11.046 0 0 1 -0.1084,-0.0409 11.046,11.046 0 0 1 -0.10773,-0.0423 11.046,11.046 0 0 1 -0.10773,-0.0433 11.046,11.046 0 0 1 -0.10673,-0.0443 11.046,11.046 0 0 1 -0.10672,-0.0456 11.046,11.046 0 0 1 -0.10605,-0.0466 11.046,11.046 0 0 1 -0.10538,-0.0477 11.046,11.046 0 0 1 -0.10505,-0.0487 11.046,11.046 0 0 1 -0.10471,-0.05 11.046,11.046 0 0 1 -0.10404,-0.051 11.046,11.046 0 0 1 -0.10337,-0.0524 11.046,11.046 0 0 1 -0.10303,-0.053 11.046,11.046 0 0 1 -0.10236,-0.0544 11.046,11.046 0 0 1 -0.10169,-0.0554 11.046,11.046 0 0 1 -0.10102,-0.0564 11.046,11.046 0 0 1 -0.10068,-0.0574 11.046,11.046 0 0 1 -0.10001,-0.0587 11.046,11.046 0 0 1 -0.09934,-0.0594 11.046,11.046 0 0 1 -0.09867,-0.0607 11.046,11.046 0 0 1 -0.098,-0.0614 11.046,11.046 0 0 1 -0.09766,-0.0628 11.046,11.046 0 0 1 -0.09666,-0.0638 11.046,11.046 0 0 1 -0.09598,-0.0648 11.046,11.046 0 0 1 -0.09565,-0.0658 11.046,11.046 0 0 1 -0.09464,-0.0665 11.046,11.046 0 0 1 -0.09397,-0.0678 11.046,11.046 0 0 1 -0.0933,-0.0688 11.046,11.046 0 0 1 -0.09263,-0.0695 11.046,11.046 0 0 1 -0.09196,-0.0708 11.046,11.046 0 0 1 -0.09095,-0.0715 11.046,11.046 0 0 1 -0.09028,-0.0725 11.046,11.046 0 0 1 -0.08961,-0.0735 11.046,11.046 0 0 1 -0.08894,-0.0745 11.046,11.046 0 0 1 -0.08793,-0.0752 11.046,11.046 0 0 1 -0.08726,-0.0762 11.046,11.046 0 0 1 -0.08625,-0.0772 11.046,11.046 0 0 1 -0.08558,-0.0782 11.046,11.046 0 0 1 -0.08491,-0.0789 11.046,11.046 0 0 1 -0.0839,-0.0799 11.046,11.046 0 0 1 -0.08323,-0.0805 11.046,11.046 0 0 1 -0.08223,-0.0819 11.046,11.046 0 0 1 -0.08122,-0.0822 11.046,11.046 0 0 1 -0.08055,-0.0832 11.046,11.046 0 0 1 -0.07954,-0.0842 11.046,11.046 0 0 1 -0.07887,-0.0849 11.046,11.046 0 0 1 -0.07786,-0.0859 11.046,11.046 0 0 1 -0.07685,-0.0866 11.046,11.046 0 0 1 -0.07618,-0.0873 11.046,11.046 0 0 1 -0.07518,-0.0883 11.046,11.046 0 0 1 -0.07417,-0.0889 11.046,11.046 0 0 1 -0.07316,-0.09 11.046,11.046 0 0 1 -0.07249,-0.0903 11.046,11.046 0 0 1 -0.07115,-0.0913 11.046,11.046 0 0 1 -0.07048,-0.092 11.046,11.046 0 0 1 -0.06947,-0.093 11.046,11.046 0 0 1 -0.06846,-0.0933 11.046,11.046 0 0 1 -0.0675,-0.0943 11.046,11.046 0 0 1 -0.0664,-0.095 11.046,11.046 0 0 1 -0.0654,-0.0953 11.046,11.046 0 0 1 -0.0644,-0.0963 11.046,11.046 0 0 1 -0.0634,-0.097 11.046,11.046 0 0 1 -0.0624,-0.0977 11.046,11.046 0 0 1 -0.0614,-0.098 11.046,11.046 0 0 1 -0.0604,-0.099 11.046,11.046 0 0 1 -0.0594,-0.0997 11.046,11.046 0 0 1 -0.0584,-0.10001 11.046,11.046 0 0 1 -0.057,-0.10068 11.046,11.046 0 0 1 -0.056,-0.10136 11.046,11.046 0 0 1 -0.0554,-0.10169 11.046,11.046 0 0 1 -0.054,-0.1027 11.046,11.046 0 0 1 -0.0527,-0.10303 11.046,11.046 0 0 1 -0.052,-0.10337 11.046,11.046 0 0 1 -0.0507,-0.10438 11.046,11.046 0 0 1 -0.0497,-0.10471 11.046,11.046 0 0 1 -0.0487,-0.10505 11.046,11.046 0 0 1 -0.0477,-0.10572 11.046,11.046 0 0 1 -0.0463,-0.10605 11.046,11.046 0 0 1 -0.0453,-0.10672 11.046,11.046 0 0 1 -0.044,-0.10706 11.046,11.046 0 0 1 -0.043,-0.1074 11.046,11.046 0 0 1 -0.0419,-0.10807 11.046,11.046 0 0 1 -0.0409,-0.1084 11.046,11.046 0 0 1 -0.0396,-0.10907 11.046,11.046 0 0 1 -0.0383,-0.10907 11.046,11.046 0 0 1 -0.0376,-0.10975 11.046,11.046 0 0 1 -0.0359,-0.11008 11.046,11.046 0 0 1 -0.0352,-0.11042 11.046,11.046 0 0 1 -0.0336,-0.11075 11.046,11.046 0 0 1 -0.0329,-0.11142 11.046,11.046 0 0 1 -0.0315,-0.11142 11.046,11.046 0 0 1 -0.0302,-0.11176 11.046,11.046 0 0 1 -0.0292,-0.11209 11.046,11.046 0 0 1 -0.0282,-0.11243 11.046,11.046 0 0 1 -0.0265,-0.11277 11.046,11.046 0 0 1 -0.0258,-0.11277 11.046,11.046 0 0 1 -0.0245,-0.11344 11.046,11.046 0 0 1 -0.0232,-0.11344 11.046,11.046 0 0 1 -0.0221,-0.11377 11.046,11.046 0 0 1 -0.0208,-0.11377 11.046,11.046 0 0 1 -0.0195,-0.11411 11.046,11.046 0 0 1 -0.0188,-0.11444 11.046,11.046 0 0 1 -0.0171,-0.11478 11.046,11.046 0 0 1 -0.0161,-0.11444 11.046,11.046 0 0 1 -0.0148,-0.11512 11.046,11.046 0 0 1 -0.0138,-0.11512 11.046,11.046 0 0 1 -0.0124,-0.11512 11.046,11.046 0 0 1 -0.0114,-0.11512 11.046,11.046 0 0 1 -0.01,-0.11545 11.046,11.046 0 0 1 -0.009,-0.11545 11.046,11.046 0 0 1 -0.007,-0.11579 11.046,11.046 0 0 1 -0.006,-0.11579 11.046,11.046 0 0 1 -0.005,-0.11545 11.046,11.046 0 0 1 -0.004,-0.11579 11.046,11.046 0 0 1 -0.003,-0.11579 11.046,11.046 0 0 1 -0.002,-0.11612 11.046,11.046 0 0 1 -3.4e-4,-0.0893 11.046,11.046 0 0 1 7.1e-4,-0.11579 11.046,11.046 0 0 1 0.002,-0.11579 11.046,11.046 0 0 1 0.003,-0.11579 11.046,11.046 0 0 1 0.004,-0.11579 11.046,11.046 0 0 1 0.006,-0.11579 11.046,11.046 0 0 1 0.007,-0.11545 11.046,11.046 0 0 1 0.008,-0.11578 11.046,11.046 0 0 1 0.009,-0.11545 11.046,11.046 0 0 1 0.0104,-0.11545 11.046,11.046 0 0 1 0.0114,-0.11512 11.046,11.046 0 0 1 0.0128,-0.11512 11.046,11.046 0 0 1 0.0141,-0.11512 11.046,11.046 0 0 1 0.0151,-0.11478 11.046,11.046 0 0 1 0.0164,-0.11478 11.046,11.046 0 0 1 0.0175,-0.11444 11.046,11.046 0 0 1 0.0188,-0.11444 11.046,11.046 0 0 1 0.0198,-0.11411 11.046,11.046 0 0 1 0.0212,-0.11377 11.046,11.046 0 0 1 0.0225,-0.11377 11.046,11.046 0 0 1 0.0235,-0.11344 11.046,11.046 0 0 1 0.0245,-0.1131 11.046,11.046 0 0 1 0.0262,-0.1131 11.046,11.046 0 0 1 0.0268,-0.11243 11.046,11.046 0 0 1 0.0285,-0.11243 11.046,11.046 0 0 1 0.0292,-0.1121 11.046,11.046 0 0 1 0.0305,-0.11176 11.046,11.046 0 0 1 0.0319,-0.11142 11.046,11.046 0 0 1 0.0329,-0.11109 11.046,11.046 0 0 1 0.0342,-0.11042 11.046,11.046 0 0 1 0.0352,-0.11042 11.046,11.046 0 0 1 0.0366,-0.11008 11.046,11.046 0 0 1 0.0376,-0.10941 11.046,11.046 0 0 1 0.0386,-0.10941 11.046,11.046 0 0 1 0.0399,-0.10874 11.046,11.046 0 0 1 0.0409,-0.1084 11.046,11.046 0 0 1 0.0423,-0.10773 11.046,11.046 0 0 1 0.0433,-0.10773 11.046,11.046 0 0 1 0.0443,-0.10672 11.046,11.046 0 0 1 0.0453,-0.10673 11.046,11.046 0 0 1 0.0466,-0.10605 11.046,11.046 0 0 1 0.048,-0.10538 11.046,11.046 0 0 1 0.0487,-0.10505 11.046,11.046 0 0 1 0.05,-0.10471 11.046,11.046 0 0 1 0.051,-0.10404 11.046,11.046 0 0 1 0.052,-0.10337 11.046,11.046 0 0 1 0.0534,-0.10303 11.046,11.046 0 0 1 0.0544,-0.10203 11.046,11.046 0 0 1 0.0554,-0.10203 11.046,11.046 0 0 1 0.0564,-0.10102 11.046,11.046 0 0 1 0.0574,-0.10068 11.046,11.046 0 0 1 0.0584,-0.10001 11.046,11.046 0 0 1 0.0597,-0.0993 11.046,11.046 0 0 1 0.0607,-0.0987 11.046,11.046 0 0 1 0.0614,-0.098 11.046,11.046 0 0 1 0.0628,-0.0977 11.046,11.046 0 0 1 0.0638,-0.0967 11.046,11.046 0 0 1 0.0648,-0.096 11.046,11.046 0 0 1 0.0654,-0.0957 11.046,11.046 0 0 1 0.0668,-0.0946 11.046,11.046 0 0 1 0.0678,-0.094 11.046,11.046 0 0 1 0.06846,-0.0933 11.046,11.046 0 0 1 0.06981,-0.0926 11.046,11.046 0 0 1 0.07048,-0.0916 11.046,11.046 0 0 1 0.07182,-0.0913 11.046,11.046 0 0 1 0.07249,-0.0903 11.046,11.046 0 0 1 0.0735,-0.0896 11.046,11.046 0 0 1 0.07417,-0.0889 11.046,11.046 0 0 1 0.07551,-0.0879 11.046,11.046 0 0 1 0.07618,-0.0873 11.046,11.046 0 0 1 0.07719,-0.0862 11.046,11.046 0 0 1 0.0782,-0.0856 11.046,11.046 0 0 1 0.07887,-0.0849 11.046,11.046 0 0 1 0.07988,-0.0839 11.046,11.046 0 0 1 0.08055,-0.0829 11.046,11.046 0 0 1 0.08155,-0.0826 11.046,11.046 0 0 1 0.08256,-0.0812 11.046,11.046 0 0 1 0.08323,-0.0805 11.046,11.046 0 0 1 0.08424,-0.0795 11.046,11.046 0 0 1 0.08491,-0.0789 11.046,11.046 0 0 1 0.08592,-0.0779 11.046,11.046 0 0 1 0.08659,-0.0769 11.046,11.046 0 0 1 0.08726,-0.0762 11.046,11.046 0 0 1 0.08827,-0.0752 11.046,11.046 0 0 1 0.08894,-0.0742 11.046,11.046 0 0 1 0.08961,-0.0732 11.046,11.046 0 0 1 0.09062,-0.0722 11.046,11.046 0 0 1 0.09129,-0.0715 11.046,11.046 0 0 1 0.09196,-0.0705 11.046,11.046 0 0 1 0.09296,-0.0695 11.046,11.046 0 0 1 0.0933,-0.0685 11.046,11.046 0 0 1 0.09431,-0.0675 11.046,11.046 0 0 1 0.09464,-0.0665 11.046,11.046 0 0 1 0.09565,-0.0654 11.046,11.046 0 0 1 0.09632,-0.0644 11.046,11.046 0 0 1 0.09699,-0.0634 11.046,11.046 0 0 1 0.09766,-0.0624 11.046,11.046 0 0 1 0.098,-0.0614 11.046,11.046 0 0 1 0.09901,-0.0604 11.046,11.046 0 0 1 0.09934,-0.0594 11.046,11.046 0 0 1 0.10035,-0.0581 11.046,11.046 0 0 1 0.10068,-0.0574 11.046,11.046 0 0 1 0.10136,-0.056 11.046,11.046 0 0 1 0.10169,-0.0554 11.046,11.046 0 0 1 0.1027,-0.054 11.046,11.046 0 0 1 0.10303,-0.0527 11.046,11.046 0 0 1 0.10337,-0.052 11.046,11.046 0 0 1 0.10438,-0.0507 11.046,11.046 0 0 1 0.10438,-0.0497 11.046,11.046 0 0 1 0.10538,-0.0487 11.046,11.046 0 0 1 0.10572,-0.0477 11.046,11.046 0 0 1 0.10606,-0.0463 11.046,11.046 0 0 1 0.10672,-0.0453 11.046,11.046 0 0 1 0.10706,-0.044 11.046,11.046 0 0 1 0.1074,-0.043 11.046,11.046 0 0 1 0.10807,-0.042 11.046,11.046 0 0 1 0.1084,-0.041 11.046,11.046 0 0 1 0.10908,-0.0396 11.046,11.046 0 0 1 0.07249,-0.0255 11.046,11.046 0 0 0 -3.6498,-0.62055 z"
       fill="#ffc107"
       stop-color="#000000"
       id="path58"
       style="fill-rule:evenodd" />
    <path
       d="m 6.82659,85.285754 a 63.019,63.019 0 0 1 0.21829,0 63.019,63.019 0 0 1 63.019,63.018996 63.019,63.019 0 0 1 -63.019,63.019 63.019,63.019 0 0 1 -0.21829,-10e-4 z"
       fill="#fd7e14"
       stop-color="#000000"
       id="path64"
       style="fill-rule:evenodd" />
    <path
       d="m 102.98659,149.24687 a 31.509,31.509 0 0 1 0.10915,0 31.509,31.509 0 0 1 31.509,31.509 31.509,31.509 0 0 1 -31.509,31.509 31.509,31.509 0 0 1 -0.10915,-5e-4 z"
       fill="#28a745"
       stop-color="#000000"
       id="path90"
       style="fill-rule:evenodd" />
    <path
       d="m 102.98659,86.229074 a 31.509,31.509 0 0 1 0.10915,0 31.509,31.509 0 0 1 31.509,31.508996 31.509,31.509 0 0 1 -31.509,31.509 31.509,31.509 0 0 1 -0.10915,-5e-4 z"
       fill="#28a745"
       stop-color="#000000"
       id="path92"
       style="fill-rule:evenodd" />
    <rect
       x="70.916595"
       y="85.241577"
       width="32.067001"
       height="127.02"
       fill="#f2b6bc"
       stop-color="#000000"
       id="rect94"
       style="fill-rule:evenodd" />
    <path
       d="m 325.69659,212.60087 h 63.776 v -63.71 h -15.818 v 15.751 h -16.049 v 16.053 h -15.982 v 15.976 h -15.979 z"
       fill="#28a745"
       stop-color="#000000"
       id="path96"
       style="fill-rule:evenodd" />
    <path
       d="m -88.37841,85.471564 c 0,0 -19.64,5.3641 -19.64,29.459996 0,24.0959 19.64,34.017 19.64,34.017 z"
       fill="#ffcb2f"
       stop-color="#000000"
       id="path98"
       style="fill-rule:evenodd" />
    <path
       d="m -88.37841,85.471564 c 0,0 19.64,5.3641 19.64,29.459996 0,24.0959 -19.64,34.017 -19.64,34.017 z"
       fill="#0b5cd5"
       stop-color="#000000"
       id="path100"
       style="fill-rule:evenodd" />
    <path
       d="m 262.05287,161.41908 v 51.18231 l 28.12301,-25.59116 z"
       stop-color="#000000"
       id="path106"
       style="fill:#ffcb2f;fill-rule:evenodd;stroke-width:1.02403" />
    <path
       d="m 285.84287,161.05908 v 51.18231 l 28.12301,-25.59116 z"
       fill="#0b5cd5"
       stop-color="#000000"
       id="path110"
       style="fill-rule:evenodd;stroke-width:1.02403" />
    <path
       d="m 262.05138,85.181461 v 63.766429 h 127.4085 V 85.181461 h -63.76643 z"
       fill="#f2b6bc"
       stop-color="#000000"
       id="path116"
       style="fill-rule:evenodd;stroke-width:0.26458" />
    <path
       d="m 359.12659,85.527844 h -66.936 a 33.468,33.468 0 0 0 33.468,33.295996 33.468,33.468 0 0 0 33.468,-33.295996 z"
       stop-color="#000000"
       id="path124"
       style="fill:#ffcb2f;fill-rule:evenodd" />
    <path
       d="M 379.22478,112.03431 369.10511,95.817714 360.12098,112.68978 Z"
       stop-color="#000000"
       id="path126"
       style="fill:#ffcb2f;fill-rule:evenodd;stroke-width:1" />
    <path
       d="m 270.07305,112.02458 10.12091,-16.215741 8.98278,16.872721 z"
       stop-color="#000000"
       id="path128"
       style="fill:#ffcb2f;fill-rule:evenodd" />
    <path
       d="m 302.09951,142.751 -2.38085,-18.96615 17.6155,7.42111 z"
       stop-color="#000000"
       id="path130"
       style="fill:#ffcb2f;fill-rule:evenodd" />
    <path
       d="m 353.99193,140.8507 -16.62237,-9.43822 16.4848,-9.67627 z"
       stop-color="#000000"
       id="path132"
       style="fill:#ffcb2f;fill-rule:evenodd" />
    <path
       d="m 198.94659,116.05887 a 32.612,32.612 0 0 0 -32.612,32.444 32.612,32.612 0 0 0 32.612,32.444 32.612,32.612 0 0 0 32.612,-32.444 32.612,32.612 0 0 0 -32.612,-32.444 z"
       fill="#28a745"
       stop-color="#000000"
       id="path136"
       style="fill-rule:evenodd" />
  </g>
</svg>
