<svg width="215" height="144" viewBox="0 0 215 144" fill="none" xmlns="http://www.w3.org/2000/svg">
<g clip-path="url(#clip0)">
<path d="M61.4806 122.601C95.4355 122.601 122.961 95.1561 122.961 61.3006C122.961 27.4452 95.4355 0 61.4806 0C27.5258 0 0 27.4452 0 61.3006C0 95.1561 27.5258 122.601 61.4806 122.601Z" fill="#F2B6BC"/>
<path d="M61.4806 103.391C84.7949 103.391 103.695 84.5466 103.695 61.3006C103.695 38.0547 84.7949 19.2101 61.4806 19.2101C38.1664 19.2101 19.2665 38.0547 19.2665 61.3006C19.2665 84.5466 38.1664 103.391 61.4806 103.391Z" fill="#28A745"/>
<path d="M61.4806 86.6673C75.5314 86.6673 86.9219 75.3102 86.9219 61.3006C86.9219 47.2909 75.5314 35.9338 61.4806 35.9338C47.4298 35.9338 36.0394 47.2909 36.0394 61.3006C36.0394 75.3102 47.4298 86.6673 61.4806 86.6673Z" fill="#FFCB2F"/>
<path fill-rule="evenodd" clip-rule="evenodd" d="M215 144H148.237L181.619 86.351L215 144Z" fill="#FFCB2F"/>
</g>
<defs>
<clipPath id="clip0">
<rect width="215" height="144" fill="white"/>
</clipPath>
</defs>
</svg>
