<svg width="294" height="150" viewBox="0 0 294 150" fill="none" xmlns="http://www.w3.org/2000/svg">
<g clip-path="url(#clip0)">
<path fill-rule="evenodd" clip-rule="evenodd" d="M0 0V149.161C19.5207 149.039 38.2008 141.128 51.9616 127.155C65.7225 113.181 73.4462 94.281 73.4463 74.5804C73.4462 54.8797 65.7225 35.9793 51.9616 22.006C38.2008 8.03264 19.5207 0.121529 0 0L0 0Z" fill="#FFCB2F"/>
<path fill-rule="evenodd" clip-rule="evenodd" d="M147.089 0.839355C127.568 0.960895 108.888 8.87201 95.1272 22.8453C81.3663 36.8187 73.6427 55.7191 73.6426 75.4197C73.6427 95.1203 81.3663 114.021 95.1272 127.994C108.888 141.967 127.568 149.878 147.089 150C166.609 149.878 185.29 141.967 199.05 127.994C212.811 114.021 220.535 95.1203 220.535 75.4197C220.535 55.7191 212.811 36.8187 199.05 22.8453C185.29 8.872 166.609 0.960886 147.089 0.839355Z" fill="#0B5CD5"/>
<path fill-rule="evenodd" clip-rule="evenodd" d="M294 0V149.161C274.479 149.039 255.799 141.128 242.038 127.155C228.278 113.181 220.554 94.281 220.554 74.5804C220.554 54.8797 228.278 35.9793 242.038 22.006C255.799 8.03265 274.479 0.12153 294 0V0Z" fill="#FFCB2F"/>
</g>
<defs>
<clipPath id="clip0">
<rect width="294" height="150" fill="white"/>
</clipPath>
</defs>
</svg>
